<?plantuml 1.2026.2beta2?>
<svg
  xmlns="http://www.w3.org/2000/svg"
  xmlns:xlink="http://www.w3.org/1999/xlink" contentStyleType="text/css" data-diagram-type="ACTIVITY" height="915px" preserveAspectRatio="none" style="width:618px;height:915px;background:#FFFFFF;" version="1.1" viewBox="0 0 618 915" width="618px" zoomAndPan="magnify">
  <defs/>
  <g>
    <ellipse cx="251.252" cy="20" fill="#222222" rx="10" ry="10" style="stroke:#222222;stroke-width:1;"/>
    <rect fill="#F1F1F1" height="33.9688" rx="12.5" ry="12.5" style="stroke:#181818;stroke-width:0.5;" width="305.2285" x="98.6377" y="50"/>
    <text fill="#000000" font-family="sans-serif" font-size="12" lengthAdjust="spacing" textLength="285.2285" x="108.6377" y="71.1387">Receive PID, Type of Interest, Profile of Interest</text>
    <rect fill="#F1F1F1" height="33.9688" rx="12.5" ry="12.5" style="stroke:#181818;stroke-width:0.5;" width="193.4316" x="154.5361" y="103.9688"/>
    <text fill="#000000" font-family="sans-serif" font-size="12" lengthAdjust="spacing" textLength="173.4316" x="164.5361" y="125.1074">Resolve ID/Ref to PID Record</text>
    <rect fill="#F1F1F1" height="33.9688" rx="12.5" ry="12.5" style="stroke:#181818;stroke-width:0.5;" width="250.8477" x="125.8281" y="206.3398"/>
    <text fill="#000000" font-family="sans-serif" font-size="12" lengthAdjust="spacing" textLength="230.8477" x="135.8281" y="227.4785">Parse PID Record into type-value pairs</text>
    <polygon fill="#F1F1F1" points="189.1353,157.9375,313.3687,157.9375,325.3687,169.9375,313.3687,181.9375,189.1353,181.9375,177.1353,169.9375,189.1353,157.9375" style="stroke:#181818;stroke-width:0.5;"/>
    <text fill="#000000" font-family="sans-serif" font-size="11" lengthAdjust="spacing" textLength="19.0083" x="255.252" y="192.1479">yes</text>
    <text fill="#000000" font-family="sans-serif" font-size="11" lengthAdjust="spacing" textLength="124.2334" x="189.1353" y="173.7456">Resolution successful?</text>
    <text fill="#000000" font-family="sans-serif" font-size="11" lengthAdjust="spacing" textLength="13.7017" x="325.3687" y="167.3433">no</text>
    <ellipse cx="361.0703" cy="169.9375" fill="none" rx="11" ry="11" style="stroke:#222222;stroke-width:1;"/>
    <ellipse cx="361.0703" cy="169.9375" fill="#222222" rx="6" ry="6" style="stroke:#222222;stroke-width:1;"/>
    <polygon fill="#F1F1F1" points="195.9753,260.3086,306.5286,260.3086,318.5286,272.3086,306.5286,284.3086,195.9753,284.3086,183.9753,272.3086,195.9753,260.3086" style="stroke:#181818;stroke-width:0.5;"/>
    <text fill="#000000" font-family="sans-serif" font-size="11" lengthAdjust="spacing" textLength="19.0083" x="255.252" y="294.519">yes</text>
    <text fill="#000000" font-family="sans-serif" font-size="11" lengthAdjust="spacing" textLength="110.5532" x="195.9753" y="276.1167">FDO Type matches?</text>
    <text fill="#000000" font-family="sans-serif" font-size="11" lengthAdjust="spacing" textLength="13.7017" x="318.5286" y="269.7144">no</text>
    <ellipse cx="354.2302" cy="272.3086" fill="none" rx="11" ry="11" style="stroke:#222222;stroke-width:1;"/>
    <ellipse cx="354.2302" cy="272.3086" fill="#222222" rx="6" ry="6" style="stroke:#222222;stroke-width:1;"/>
    <polygon fill="#F1F1F1" points="158.9873,316.019,343.5166,316.019,355.5166,328.019,343.5166,340.019,158.9873,340.019,146.9873,328.019,158.9873,316.019" style="stroke:#181818;stroke-width:0.5;"/>
    <text fill="#000000" font-family="sans-serif" font-size="11" lengthAdjust="spacing" textLength="19.0083" x="255.252" y="350.2295">yes</text>
    <text fill="#000000" font-family="sans-serif" font-size="11" lengthAdjust="spacing" textLength="184.5293" x="158.9873" y="331.8271">FDO Profile matches and is valid?</text>
    <text fill="#000000" font-family="sans-serif" font-size="11" lengthAdjust="spacing" textLength="13.7017" x="355.5166" y="325.4248">no</text>
    <ellipse cx="391.2183" cy="328.019" fill="none" rx="11" ry="11" style="stroke:#222222;stroke-width:1;"/>
    <ellipse cx="391.2183" cy="328.019" fill="#222222" rx="6" ry="6" style="stroke:#222222;stroke-width:1;"/>
    <polygon fill="#F1F1F1" points="203.6157,371.7295,298.8882,371.7295,310.8882,383.7295,298.8882,395.7295,203.6157,395.7295,191.6157,383.7295,203.6157,371.7295" style="stroke:#181818;stroke-width:0.5;"/>
    <text fill="#000000" font-family="sans-serif" font-size="11" lengthAdjust="spacing" textLength="95.2725" x="203.6157" y="387.5376">Metadata in-line?</text>
    <text fill="#000000" font-family="sans-serif" font-size="11" lengthAdjust="spacing" textLength="19.0083" x="172.6074" y="381.1353">yes</text>
    <text fill="#000000" font-family="sans-serif" font-size="11" lengthAdjust="spacing" textLength="13.7017" x="310.8882" y="381.1353">no</text>
    <rect fill="#F1F1F1" height="33.9688" rx="12.5" ry="12.5" style="stroke:#181818;stroke-width:0.5;" width="168.998" x="11" y="405.7295"/>
    <text fill="#000000" font-family="sans-serif" font-size="12" lengthAdjust="spacing" textLength="148.998" x="21" y="426.8682">Read / Process Metadata</text>
    <polygon fill="#F1F1F1" points="327.8188,405.7295,486.1909,405.7295,498.1909,417.7295,486.1909,429.7295,327.8188,429.7295,315.8188,417.7295,327.8188,405.7295" style="stroke:#181818;stroke-width:0.5;"/>
    <text fill="#000000" font-family="sans-serif" font-size="11" lengthAdjust="spacing" textLength="158.3721" x="327.8188" y="421.5376">Metadata by FDO reference?</text>
    <text fill="#000000" font-family="sans-serif" font-size="11" lengthAdjust="spacing" textLength="19.0083" x="296.8105" y="415.1353">yes</text>
    <text fill="#000000" font-family="sans-serif" font-size="11" lengthAdjust="spacing" textLength="13.7017" x="498.1909" y="415.1353">no</text>
    <rect fill="#F1F1F1" height="33.9688" rx="12.5" ry="12.5" style="stroke:#181818;stroke-width:0.5;" width="185.0703" x="209.998" y="439.7295"/>
    <text fill="#000000" font-family="sans-serif" font-size="12" lengthAdjust="spacing" textLength="165.0703" x="219.998" y="460.8682">Start new FPB for Metadata</text>
    <rect fill="#F1F1F1" height="33.9688" rx="12.5" ry="12.5" style="stroke:#181818;stroke-width:0.5;" width="192.8164" x="415.0684" y="439.7295"/>
    <text fill="#000000" font-family="sans-serif" font-size="12" lengthAdjust="spacing" textLength="172.8164" x="425.0684" y="460.8682">Resolve Metadata Reference</text>
    <polygon fill="#F1F1F1" points="407.0049,479.6982,419.0049,491.6982,407.0049,503.6982,395.0049,491.6982,407.0049,479.6982" style="stroke:#181818;stroke-width:0.5;"/>
    <polygon fill="#F1F1F1" points="251.252,509.6982,263.252,521.6982,251.252,533.6982,239.252,521.6982,251.252,509.6982" style="stroke:#181818;stroke-width:0.5;"/>
    <polygon fill="#F1F1F1" points="216.5278,553.6982,285.9761,553.6982,297.9761,565.6982,285.9761,577.6982,216.5278,577.6982,204.5278,565.6982,216.5278,553.6982" style="stroke:#181818;stroke-width:0.5;"/>
    <text fill="#000000" font-family="sans-serif" font-size="11" lengthAdjust="spacing" textLength="69.4482" x="216.5278" y="569.5063">Data in-line?</text>
    <text fill="#000000" font-family="sans-serif" font-size="11" lengthAdjust="spacing" textLength="19.0083" x="185.5195" y="563.104">yes</text>
    <text fill="#000000" font-family="sans-serif" font-size="11" lengthAdjust="spacing" textLength="13.7017" x="297.9761" y="563.104">no</text>
    <rect fill="#F1F1F1" height="33.9688" rx="12.5" ry="12.5" style="stroke:#181818;stroke-width:0.5;" width="140.8262" x="46.2148" y="587.6982"/>
    <text fill="#000000" font-family="sans-serif" font-size="12" lengthAdjust="spacing" textLength="120.8262" x="56.2148" y="608.8369">Read / Process Data</text>
    <polygon fill="#F1F1F1" points="319.6021,587.6982,452.1499,587.6982,464.1499,599.6982,452.1499,611.6982,319.6021,611.6982,307.6021,599.6982,319.6021,587.6982" style="stroke:#181818;stroke-width:0.5;"/>
    <text fill="#000000" font-family="sans-serif" font-size="11" lengthAdjust="spacing" textLength="132.5479" x="319.6021" y="603.5063">Data by FDO reference?</text>
    <text fill="#000000" font-family="sans-serif" font-size="11" lengthAdjust="spacing" textLength="19.0083" x="288.5938" y="597.104">yes</text>
    <text fill="#000000" font-family="sans-serif" font-size="11" lengthAdjust="spacing" textLength="13.7017" x="464.1499" y="597.104">no</text>
    <rect fill="#F1F1F1" height="33.9688" rx="12.5" ry="12.5" style="stroke:#181818;stroke-width:0.5;" width="156.8984" x="217.041" y="621.6982"/>
    <text fill="#000000" font-family="sans-serif" font-size="12" lengthAdjust="spacing" textLength="136.8984" x="227.041" y="642.8369">Start new FPB for Data</text>
    <rect fill="#F1F1F1" height="33.9688" rx="12.5" ry="12.5" style="stroke:#181818;stroke-width:0.5;" width="164.6445" x="393.9395" y="621.6982"/>
    <text fill="#000000" font-family="sans-serif" font-size="12" lengthAdjust="spacing" textLength="144.6445" x="403.9395" y="642.8369">Resolve Data Reference</text>
    <polygon fill="#F1F1F1" points="385.876,661.667,397.876,673.667,385.876,685.667,373.876,673.667,385.876,661.667" style="stroke:#181818;stroke-width:0.5;"/>
    <polygon fill="#F1F1F1" points="251.252,691.667,263.252,703.667,251.252,715.667,239.252,703.667,251.252,691.667" style="stroke:#181818;stroke-width:0.5;"/>
    <rect fill="#F1F1F1" height="33.9688" rx="12.5" ry="12.5" style="stroke:#181818;stroke-width:0.5;" width="212.4805" x="145.0117" y="784.0693"/>
    <text fill="#000000" font-family="sans-serif" font-size="12" lengthAdjust="spacing" textLength="192.4805" x="155.0117" y="805.208">Start FPB for each member FDO</text>
    <polygon fill="#F1F1F1" points="207.6521,735.667,294.8518,735.667,306.8518,747.667,294.8518,759.667,207.6521,759.667,195.6521,747.667,207.6521,735.667" style="stroke:#181818;stroke-width:0.5;"/>
    <text fill="#000000" font-family="sans-serif" font-size="11" lengthAdjust="spacing" textLength="19.0083" x="255.252" y="769.8774">yes</text>
    <text fill="#000000" font-family="sans-serif" font-size="11" lengthAdjust="spacing" textLength="87.1997" x="207.6521" y="751.4751">Collection FDO?</text>
    <polygon fill="#F1F1F1" points="251.252,838.0381,263.252,850.0381,251.252,862.0381,239.252,850.0381,251.252,838.0381" style="stroke:#181818;stroke-width:0.5;"/>
    <ellipse cx="251.252" cy="893.0381" fill="none" rx="11" ry="11" style="stroke:#222222;stroke-width:1;"/>
    <ellipse cx="251.252" cy="893.0381" fill="#222222" rx="6" ry="6" style="stroke:#222222;stroke-width:1;"/>
    <line style="stroke:#181818;stroke-width:1;" x1="251.252" x2="251.252" y1="30" y2="50"/>
    <polygon fill="#181818" points="247.252,40,251.252,50,255.252,40,251.252,44" style="stroke:#181818;stroke-width:1;"/>
    <line style="stroke:#181818;stroke-width:1;" x1="251.252" x2="251.252" y1="83.9688" y2="103.9688"/>
    <polygon fill="#181818" points="247.252,93.9688,251.252,103.9688,255.252,93.9688,251.252,97.9688" style="stroke:#181818;stroke-width:1;"/>
    <line style="stroke:#181818;stroke-width:1;" x1="251.252" x2="251.252" y1="181.9375" y2="206.3398"/>
    <polygon fill="#181818" points="247.252,196.3398,251.252,206.3398,255.252,196.3398,251.252,200.3398" style="stroke:#181818;stroke-width:1;"/>
    <line style="stroke:#181818;stroke-width:1;" x1="325.3687" x2="350.0703" y1="169.9375" y2="169.9375"/>
    <polygon fill="#181818" points="340.0703,165.9375,350.0703,169.9375,340.0703,173.9375,344.0703,169.9375" style="stroke:#181818;stroke-width:1;"/>
    <line style="stroke:#181818;stroke-width:1;" x1="251.252" x2="251.252" y1="240.3086" y2="260.3086"/>
    <polygon fill="#181818" points="247.252,250.3086,251.252,260.3086,255.252,250.3086,251.252,254.3086" style="stroke:#181818;stroke-width:1;"/>
    <line style="stroke:#181818;stroke-width:1;" x1="251.252" x2="251.252" y1="137.9375" y2="157.9375"/>
    <polygon fill="#181818" points="247.252,147.9375,251.252,157.9375,255.252,147.9375,251.252,151.9375" style="stroke:#181818;stroke-width:1;"/>
    <line style="stroke:#181818;stroke-width:1;" x1="251.252" x2="251.252" y1="284.3086" y2="316.019"/>
    <polygon fill="#181818" points="247.252,306.019,251.252,316.019,255.252,306.019,251.252,310.019" style="stroke:#181818;stroke-width:1;"/>
    <line style="stroke:#181818;stroke-width:1;" x1="318.5286" x2="343.2302" y1="272.3086" y2="272.3086"/>
    <polygon fill="#181818" points="333.2302,268.3086,343.2302,272.3086,333.2302,276.3086,337.2302,272.3086" style="stroke:#181818;stroke-width:1;"/>
    <line style="stroke:#181818;stroke-width:1;" x1="251.252" x2="251.252" y1="340.019" y2="371.7295"/>
    <polygon fill="#181818" points="247.252,361.7295,251.252,371.7295,255.252,361.7295,251.252,365.7295" style="stroke:#181818;stroke-width:1;"/>
    <line style="stroke:#181818;stroke-width:1;" x1="355.5166" x2="380.2183" y1="328.019" y2="328.019"/>
    <polygon fill="#181818" points="370.2183,324.019,380.2183,328.019,370.2183,332.019,374.2183,328.019" style="stroke:#181818;stroke-width:1;"/>
    <line style="stroke:#181818;stroke-width:1;" x1="315.8188" x2="302.5332" y1="417.7295" y2="417.7295"/>
    <line style="stroke:#181818;stroke-width:1;" x1="302.5332" x2="302.5332" y1="417.7295" y2="439.7295"/>
    <polygon fill="#181818" points="298.5332,429.7295,302.5332,439.7295,306.5332,429.7295,302.5332,433.7295" style="stroke:#181818;stroke-width:1;"/>
    <line style="stroke:#181818;stroke-width:1;" x1="498.1909" x2="511.4766" y1="417.7295" y2="417.7295"/>
    <line style="stroke:#181818;stroke-width:1;" x1="511.4766" x2="511.4766" y1="417.7295" y2="439.7295"/>
    <polygon fill="#181818" points="507.4766,429.7295,511.4766,439.7295,515.4766,429.7295,511.4766,433.7295" style="stroke:#181818;stroke-width:1;"/>
    <line style="stroke:#181818;stroke-width:1;" x1="302.5332" x2="302.5332" y1="473.6982" y2="491.6982"/>
    <line style="stroke:#181818;stroke-width:1;" x1="302.5332" x2="395.0049" y1="491.6982" y2="491.6982"/>
    <polygon fill="#181818" points="385.0049,487.6982,395.0049,491.6982,385.0049,495.6982,389.0049,491.6982" style="stroke:#181818;stroke-width:1;"/>
    <line style="stroke:#181818;stroke-width:1;" x1="511.4766" x2="511.4766" y1="473.6982" y2="491.6982"/>
    <line style="stroke:#181818;stroke-width:1;" x1="511.4766" x2="419.0049" y1="491.6982" y2="491.6982"/>
    <polygon fill="#181818" points="429.0049,487.6982,419.0049,491.6982,429.0049,495.6982,425.0049,491.6982" style="stroke:#181818;stroke-width:1;"/>
    <line style="stroke:#181818;stroke-width:1;" x1="191.6157" x2="95.499" y1="383.7295" y2="383.7295"/>
    <line style="stroke:#181818;stroke-width:1;" x1="95.499" x2="95.499" y1="383.7295" y2="405.7295"/>
    <polygon fill="#181818" points="91.499,395.7295,95.499,405.7295,99.499,395.7295,95.499,399.7295" style="stroke:#181818;stroke-width:1;"/>
    <line style="stroke:#181818;stroke-width:1;" x1="310.8882" x2="407.0049" y1="383.7295" y2="383.7295"/>
    <line style="stroke:#181818;stroke-width:1;" x1="407.0049" x2="407.0049" y1="383.7295" y2="405.7295"/>
    <polygon fill="#181818" points="403.0049,395.7295,407.0049,405.7295,411.0049,395.7295,407.0049,399.7295" style="stroke:#181818;stroke-width:1;"/>
    <line style="stroke:#181818;stroke-width:1;" x1="95.499" x2="95.499" y1="439.6982" y2="521.6982"/>
    <line style="stroke:#181818;stroke-width:1;" x1="95.499" x2="239.252" y1="521.6982" y2="521.6982"/>
    <polygon fill="#181818" points="229.252,517.6982,239.252,521.6982,229.252,525.6982,233.252,521.6982" style="stroke:#181818;stroke-width:1;"/>
    <line style="stroke:#181818;stroke-width:1;" x1="407.0049" x2="407.0049" y1="503.6982" y2="521.6982"/>
    <line style="stroke:#181818;stroke-width:1;" x1="407.0049" x2="263.252" y1="521.6982" y2="521.6982"/>
    <polygon fill="#181818" points="273.252,517.6982,263.252,521.6982,273.252,525.6982,269.252,521.6982" style="stroke:#181818;stroke-width:1;"/>
    <line style="stroke:#181818;stroke-width:1;" x1="307.6021" x2="295.4902" y1="599.6982" y2="599.6982"/>
    <line style="stroke:#181818;stroke-width:1;" x1="295.4902" x2="295.4902" y1="599.6982" y2="621.6982"/>
    <polygon fill="#181818" points="291.4902,611.6982,295.4902,621.6982,299.4902,611.6982,295.4902,615.6982" style="stroke:#181818;stroke-width:1;"/>
    <line style="stroke:#181818;stroke-width:1;" x1="464.1499" x2="476.2617" y1="599.6982" y2="599.6982"/>
    <line style="stroke:#181818;stroke-width:1;" x1="476.2617" x2="476.2617" y1="599.6982" y2="621.6982"/>
    <polygon fill="#181818" points="472.2617,611.6982,476.2617,621.6982,480.2617,611.6982,476.2617,615.6982" style="stroke:#181818;stroke-width:1;"/>
    <line style="stroke:#181818;stroke-width:1;" x1="295.4902" x2="295.4902" y1="655.667" y2="673.667"/>
    <line style="stroke:#181818;stroke-width:1;" x1="295.4902" x2="373.876" y1="673.667" y2="673.667"/>
    <polygon fill="#181818" points="363.876,669.667,373.876,673.667,363.876,677.667,367.876,673.667" style="stroke:#181818;stroke-width:1;"/>
    <line style="stroke:#181818;stroke-width:1;" x1="476.2617" x2="476.2617" y1="655.667" y2="673.667"/>
    <line style="stroke:#181818;stroke-width:1;" x1="476.2617" x2="397.876" y1="673.667" y2="673.667"/>
    <polygon fill="#181818" points="407.876,669.667,397.876,673.667,407.876,677.667,403.876,673.667" style="stroke:#181818;stroke-width:1;"/>
    <line style="stroke:#181818;stroke-width:1;" x1="204.5278" x2="116.6279" y1="565.6982" y2="565.6982"/>
    <line style="stroke:#181818;stroke-width:1;" x1="116.6279" x2="116.6279" y1="565.6982" y2="587.6982"/>
    <polygon fill="#181818" points="112.6279,577.6982,116.6279,587.6982,120.6279,577.6982,116.6279,581.6982" style="stroke:#181818;stroke-width:1;"/>
    <line style="stroke:#181818;stroke-width:1;" x1="297.9761" x2="385.876" y1="565.6982" y2="565.6982"/>
    <line style="stroke:#181818;stroke-width:1;" x1="385.876" x2="385.876" y1="565.6982" y2="587.6982"/>
    <polygon fill="#181818" points="381.876,577.6982,385.876,587.6982,389.876,577.6982,385.876,581.6982" style="stroke:#181818;stroke-width:1;"/>
    <line style="stroke:#181818;stroke-width:1;" x1="116.6279" x2="116.6279" y1="621.667" y2="703.667"/>
    <line style="stroke:#181818;stroke-width:1;" x1="116.6279" x2="239.252" y1="703.667" y2="703.667"/>
    <polygon fill="#181818" points="229.252,699.667,239.252,703.667,229.252,707.667,233.252,703.667" style="stroke:#181818;stroke-width:1;"/>
    <line style="stroke:#181818;stroke-width:1;" x1="385.876" x2="385.876" y1="685.667" y2="703.667"/>
    <line style="stroke:#181818;stroke-width:1;" x1="385.876" x2="263.252" y1="703.667" y2="703.667"/>
    <polygon fill="#181818" points="273.252,699.667,263.252,703.667,273.252,707.667,269.252,703.667" style="stroke:#181818;stroke-width:1;"/>
    <line style="stroke:#181818;stroke-width:1;" x1="251.252" x2="251.252" y1="533.6982" y2="553.6982"/>
    <polygon fill="#181818" points="247.252,543.6982,251.252,553.6982,255.252,543.6982,251.252,547.6982" style="stroke:#181818;stroke-width:1;"/>
    <line style="stroke:#181818;stroke-width:1;" x1="251.252" x2="251.252" y1="759.667" y2="784.0693"/>
    <polygon fill="#181818" points="247.252,774.0693,251.252,784.0693,255.252,774.0693,251.252,778.0693" style="stroke:#181818;stroke-width:1;"/>
    <line style="stroke:#181818;stroke-width:1;" x1="306.8518" x2="367.4922" y1="747.667" y2="747.667"/>
    <polygon fill="#181818" points="363.4922,791.0537,367.4922,801.0537,371.4922,791.0537,367.4922,795.0537" style="stroke:#181818;stroke-width:1;"/>
    <line style="stroke:#181818;stroke-width:1;" x1="367.4922" x2="367.4922" y1="747.667" y2="850.0381"/>
    <line style="stroke:#181818;stroke-width:1;" x1="367.4922" x2="263.252" y1="850.0381" y2="850.0381"/>
    <polygon fill="#181818" points="273.252,846.0381,263.252,850.0381,273.252,854.0381,269.252,850.0381" style="stroke:#181818;stroke-width:1;"/>
    <line style="stroke:#181818;stroke-width:1;" x1="251.252" x2="251.252" y1="818.0381" y2="838.0381"/>
    <polygon fill="#181818" points="247.252,828.0381,251.252,838.0381,255.252,828.0381,251.252,832.0381" style="stroke:#181818;stroke-width:1;"/>
    <line style="stroke:#181818;stroke-width:1;" x1="251.252" x2="251.252" y1="715.667" y2="735.667"/>
    <polygon fill="#181818" points="247.252,725.667,251.252,735.667,255.252,725.667,251.252,729.667" style="stroke:#181818;stroke-width:1;"/>
    <line style="stroke:#181818;stroke-width:1;" x1="251.252" x2="251.252" y1="862.0381" y2="882.0381"/>
    <polygon fill="#181818" points="247.252,872.0381,251.252,882.0381,255.252,872.0381,251.252,876.0381" style="stroke:#181818;stroke-width:1;"/>
    <?plantuml-src dP91QiCm54JtEiKi4qZ8FbuKMX78ejIulO0YVs61B1b9JidjAobriKbfscxDp9iPVOSeV6JxXYJfCw4-yWtUBWF1AHnj94yXRb1xfxHPVAnOTWLdakl8TmqfH9VzI2pdsuffXLLHZ54xYp1AII6eqJoi4JkoM5qeh1cmhuKFDFD2syIAgSRsBCn868JseM9aacnbNJQ5w0P6jjMAbQG3VxaMxqMK7OLbo3tdDF3J365JYO2KhjlVavufYbP4aVflZRPqCxGXqMANq_9JOD8lbor8fmjoFqyglRgLDyW4VSqdXALt7Ef7AETdN61EBWsk9_iAQ2Po4PSjiqNy3slujqlulrVmdnVm--sVd34aoz-Nuc_wNoEdE1AoGq_zYNnMLnCe7_a3?>
  </g>
</svg>